<svg xmlns="http://www.w3.org/2000/svg" viewBox="0 0 512 512" width="128" height="128">
  <!-- Background -->
  <rect width="512" height="512" fill="#003d82" rx="64" ry="64"/>
  
  <!-- Map pin -->
  <path d="M256 120c-50 0-90 40-90 90 0 60 90 182 90 182s90-122 90-182c0-50-40-90-90-90zm0 120c-16.5 0-30-13.5-30-30s13.5-30 30-30 30 13.5 30 30-13.5 30-30 30z" fill="#ffffff"/>
  
  <!-- Airplane -->
  <path d="M400 256c0 5.5-4.5 10-10 10h-60l-90 60v-60h-80c-5.5 0-10-4.5-10-10s4.5-10 10-10h80v-60l90 60h60c5.5 0 10 4.5 10 10z" fill="#ffcc00"/>
</svg>