<svg xmlns="http://www.w3.org/2000/svg" viewBox="0 0 32 32" width="32" height="32">
  <!-- Background circle with Ryanair blue -->
  <circle cx="16" cy="16" r="15" fill="#003d82" stroke="#ffffff" stroke-width="1"/>
  
  <!-- Map outline suggesting Europe -->
  <path d="M8 10 Q12 8 16 10 Q20 8 24 12 Q22 16 20 20 Q16 22 12 20 Q8 16 8 10 Z" 
        fill="none" stroke="#ffffff" stroke-width="1" opacity="0.3"/>
  
  <!-- Airplane icon in center -->
  <g fill="#ffffff" transform="translate(16,16)">
    <!-- Airplane body -->
    <rect x="-0.5" y="-6" width="1" height="12" rx="0.5"/>
    <!-- Wings -->
    <rect x="-6" y="-1" width="12" height="2" rx="1"/>
    <!-- Tail wings -->
    <rect x="-2" y="-6" width="4" height="1" rx="0.5"/>
  </g>
  
  <!-- Airport dots representing major European cities -->
  <circle cx="10" cy="11" r="1.5" fill="#ffd700" opacity="0.9"/>
  <circle cx="22" cy="13" r="1.5" fill="#ffd700" opacity="0.9"/>
  <circle cx="12" cy="21" r="1.5" fill="#ffd700" opacity="0.9"/>
  <circle cx="20" cy="19" r="1.5" fill="#ffd700" opacity="0.9"/>
  
  <!-- Flight route lines -->
  <path d="M10 11 Q16 8 22 13" stroke="#ffd700" stroke-width="0.5" fill="none" opacity="0.6"/>
  <path d="M22 13 Q18 16 12 21" stroke="#ffd700" stroke-width="0.5" fill="none" opacity="0.6"/>
</svg>